/* XPM */
static char * close_prelight_xpm[] = {
"22 22 79 1",
" 	c None",
".	c #6C6C6C",
"+	c #5F5F5F",
"@	c #886767",
"#	c #B26F6F",
"$	c #D47676",
"%	c #EC7A7A",
"&	c #5E5E5E",
"*	c #716262",
"=	c #B16E6E",
"-	c #EE7B7B",
";	c #F57C7C",
">	c #5D5D5D",
",	c #706161",
"'	c #BD7070",
")	c #E47878",
"!	c #BA7676",
"~	c #A58383",
"{	c #A19797",
"]	c #5C5C5C",
"^	c #B06E6E",
"/	c #A68181",
"(	c #A0A0A0",
"_	c #5B5B5B",
":	c #856464",
"<	c #EE7A7A",
"[	c #E37878",
"}	c #A58080",
"|	c #9F9F9F",
"1	c #5A5A5A",
"2	c #B06D6D",
"3	c #B97575",
"4	c #9D9D9D",
"5	c #595959",
"6	c #D37474",
"7	c #A28080",
"8	c #9B9B9B",
"9	c #585858",
"0	c #999090",
"a	c #999999",
"b	c #575757",
"c	c #988E8E",
"d	c #979797",
"e	c #565656",
"f	c #D27474",
"g	c #9E7C7C",
"h	c #959595",
"i	c #555555",
"j	c #AD6B6B",
"k	c #B67272",
"l	c #939393",
"m	c #545454",
"n	c #805F5F",
"o	c #ED7A7A",
"p	c #E27777",
"q	c #9D7878",
"r	c #919191",
"s	c #535353",
"t	c #AC6A6A",
"u	c #D27373",
"v	c #9C7777",
"w	c #8F8F8F",
"x	c #525252",
"y	c #665757",
"z	c #BA6C6C",
"A	c #B57171",
"B	c #9A7878",
"C	c #908686",
"D	c #515151",
"E	c #665656",
"F	c #AB6969",
"G	c #505050",
"H	c #7D5C5C",
"I	c #AB6868",
"J	c #D17272",
"K	c #EB7979",
"L	c #4F4F4F",
"M	c #4E4E4E",
"N	c #4D4D4D",
"......................",
"++++++++++++++++++++++",
"+++++++@#$%%$#@+++++++",
"&&&&&*=-;;;;;;-=*&&&&&",
">>>>,';)!~{{~!);',>>>>",
"]]]]^;$/((((((/$;^]]]]",
"___:<[}||||||||}[<:___",
"1112;344444444443;2111",
"5556;788888888887;6555",
"999%;0aaaaaaaaaa0;%999",
"bbb%;cddddddddddc;%bbb",
"eeef;ghhhhhhhhhhg;feee",
"iiij;kllllllllllk;jiii",
"mmmnopqrrrrrrrrqponmmm",
"sssst;uvwwwwwwvu;tssss",
"xxxxyz;pABCCBAp;zyxxxx",
"DDDDDEFo;;;;;;oFEDDDDD",
"GGGGGGGHIJKKJIHGGGGGGG",
"LLLLLLLLLLLLLLLLLLLLLL",
"MMMMMMMMMMMMMMMMMMMMMM",
"NNNNNNNNNNNNNNNNNNNNNN",
"NNNNNNNNNNNNNNNNNNNNNN"};
