/* XPM */
static char * close_pressed_xpm[] = {
"22 22 78 1",
" 	c None",
".	c #6C6C6C",
"+	c #5F5F5F",
"@	c #886767",
"#	c #B26F6F",
"$	c #D47676",
"%	c #EC7A7A",
"&	c #5E5E5E",
"*	c #716262",
"=	c #B16E6E",
"-	c #EE7B7B",
";	c #F57C7C",
">	c #5D5D5D",
",	c #706161",
"'	c #BD7070",
")	c #E37878",
"!	c #B67272",
"~	c #9B7878",
"{	c #8F8686",
"]	c #5C5C5C",
"^	c #B06E6E",
"/	c #D37575",
"(	c #9E7878",
"_	c #8E8E8E",
":	c #5B5B5B",
"<	c #856464",
"[	c #EE7A7A",
"}	c #9D7878",
"|	c #8F8F8F",
"1	c #5A5A5A",
"2	c #B06D6D",
"3	c #B77373",
"4	c #919191",
"5	c #595959",
"6	c #D37474",
"7	c #9E7B7B",
"8	c #939393",
"9	c #585858",
"0	c #978C8C",
"a	c #959595",
"b	c #575757",
"c	c #988E8E",
"d	c #979797",
"e	c #565656",
"f	c #D27474",
"g	c #A17E7E",
"h	c #999999",
"i	c #555555",
"j	c #AD6B6B",
"k	c #B87474",
"l	c #9B9B9B",
"m	c #545454",
"n	c #805F5F",
"o	c #ED7A7A",
"p	c #E27777",
"q	c #A37E7E",
"r	c #9D9D9D",
"s	c #535353",
"t	c #AC6A6A",
"u	c #A47E7E",
"v	c #9F9F9F",
"w	c #525252",
"x	c #665757",
"y	c #BA6C6C",
"z	c #E37777",
"A	c #A48181",
"B	c #A09595",
"C	c #515151",
"D	c #665656",
"E	c #AB6969",
"F	c #505050",
"G	c #7D5C5C",
"H	c #AB6868",
"I	c #D17272",
"J	c #EB7979",
"K	c #4F4F4F",
"L	c #4E4E4E",
"M	c #4D4D4D",
"......................",
"++++++++++++++++++++++",
"+++++++@#$%%$#@+++++++",
"&&&&&*=-;;;;;;-=*&&&&&",
">>>>,';)!~{{~!);',>>>>",
"]]]]^;/(______(/;^]]]]",
":::<[)}||||||||})[<:::",
"1112;344444444443;2111",
"5556;788888888887;6555",
"999%;0aaaaaaaaaa0;%999",
"bbb%;cddddddddddc;%bbb",
"eeef;ghhhhhhhhhhg;feee",
"iiij;kllllllllllk;jiii",
"mmmnopqrrrrrrrrqponmmm",
"sssst;6uvvvvvvu6;tssss",
"wwwwxy;zkABBAkz;yxwwww",
"CCCCCDEo;;;;;;oEDCCCCC",
"FFFFFFFGHIJJIHGFFFFFFF",
"KKKKKKKKKKKKKKKKKKKKKK",
"LLLLLLLLLLLLLLLLLLLLLL",
"MMMMMMMMMMMMMMMMMMMMMM",
"MMMMMMMMMMMMMMMMMMMMMM"};
