/* XPM */
static char * hide_prelight_xpm[] = {
"22 22 80 1",
" 	c None",
".	c #6C6C6C",
"+	c #5F5F5F",
"@	c #7E7553",
"#	c #9E8B47",
"$	c #B89D3D",
"%	c #CAA936",
"&	c #5E5E5E",
"*	c #6C6859",
"=	c #9D8A46",
"-	c #CCAA35",
";	c #D1AE33",
">	c #5D5D5D",
",	c #6C6758",
"'	c #A69042",
")	c #C4A438",
"!	c #A6924E",
"~	c #9B916E",
"{	c #9E9B91",
"]	c #5C5C5C",
"^	c #9C8945",
"/	c #9B906A",
"(	c #A0A0A0",
"_	c #5B5B5B",
":	c #7B7250",
"<	c #CBAA35",
"[	c #C3A438",
"}	c #9A8F69",
"|	c #9F9F9F",
"1	c #5A5A5A",
"2	c #9C8844",
"3	c #A4914C",
"4	c #9D9D9D",
"5	c #595959",
"6	c #B79B3B",
"7	c #988E6B",
"8	c #9B9B9B",
"9	c #585858",
"0	c #CAA935",
"a	c #97948A",
"b	c #999999",
"c	c #575757",
"d	c #959288",
"e	c #979797",
"f	c #565656",
"g	c #B69B3B",
"h	c #948A67",
"i	c #959595",
"j	c #555555",
"k	c #9A8642",
"l	c #A28E49",
"m	c #939393",
"n	c #545454",
"o	c #766D4B",
"p	c #C2A337",
"q	c #928761",
"r	c #919191",
"s	c #535353",
"t	c #988541",
"u	c #B69A3B",
"v	c #918761",
"w	c #8F8F8F",
"x	c #525252",
"y	c #625E4E",
"z	c #A28D3E",
"A	c #A08C48",
"B	c #908663",
"C	c #8D8A80",
"D	c #515151",
"E	c #615D4D",
"F	c #978441",
"G	c #CBAA34",
"H	c #505050",
"I	c #736A48",
"J	c #978440",
"K	c #B59939",
"L	c #C9A835",
"M	c #4F4F4F",
"N	c #4E4E4E",
"O	c #4D4D4D",
"......................",
"++++++++++++++++++++++",
"+++++++@#$%%$#@+++++++",
"&&&&&*=-;;;;;;-=*&&&&&",
">>>>,';)!~{{~!);',>>>>",
"]]]]^;$/((((((/$;^]]]]",
"___:<[}||||||||}[<:___",
"1112;344444444443;2111",
"5556;788888888887;6555",
"9990;abbbbbbbbbba;0999",
"ccc0;deeeeeeeeeed;0ccc",
"fffg;hiiiiiiiiiih;gfff",
"jjjk;lmmmmmmmmmml;kjjj",
"nnno<pqrrrrrrrrqp<onnn",
"sssst;uvwwwwwwvu;tssss",
"xxxxyz;pABCCBAp;zyxxxx",
"DDDDDEFG;;;;;;GFEDDDDD",
"HHHHHHHIJKLLKJIHHHHHHH",
"MMMMMMMMMMMMMMMMMMMMMM",
"NNNNNNNNNNNNNNNNNNNNNN",
"OOOOOOOOOOOOOOOOOOOOOO",
"OOOOOOOOOOOOOOOOOOOOOO"};
