/* XPM */
static char * hide_pressed_xpm[] = {
"22 22 81 1",
" 	c None",
".	c #6C6C6C",
"+	c #5F5F5F",
"@	c #7E7553",
"#	c #9E8B47",
"$	c #B89D3D",
"%	c #CAA936",
"&	c #5E5E5E",
"*	c #6C6859",
"=	c #9D8A46",
"-	c #CCAA35",
";	c #D1AE33",
">	c #5D5D5D",
",	c #6C6758",
"'	c #A69042",
")	c #C3A438",
"!	c #A28E4A",
"~	c #918764",
"{	c #8C8A80",
"]	c #5C5C5C",
"^	c #9C8945",
"/	c #B79C3D",
"(	c #928761",
"_	c #8E8E8E",
":	c #5B5B5B",
"<	c #7B7250",
"[	c #CBAA35",
"}	c #928862",
"|	c #8F8F8F",
"1	c #5A5A5A",
"2	c #9C8844",
"3	c #A38F4A",
"4	c #919191",
"5	c #595959",
"6	c #B79B3B",
"7	c #938967",
"8	c #939393",
"9	c #585858",
"0	c #CAA935",
"a	c #949187",
"b	c #959595",
"c	c #575757",
"d	c #959288",
"e	c #979797",
"f	c #565656",
"g	c #B69B3B",
"h	c #968C6A",
"i	c #999999",
"j	c #555555",
"k	c #9A8642",
"l	c #A38F4B",
"m	c #9B9B9B",
"n	c #545454",
"o	c #766D4B",
"p	c #C2A337",
"q	c #988D67",
"r	c #9D9D9D",
"s	c #535353",
"t	c #988541",
"u	c #B79B3C",
"v	c #998E68",
"w	c #9F9F9F",
"x	c #525252",
"y	c #625E4E",
"z	c #A28D3E",
"A	c #C3A337",
"B	c #A4904B",
"C	c #998F6D",
"D	c #9D9A90",
"E	c #515151",
"F	c #615D4D",
"G	c #978441",
"H	c #CBAA34",
"I	c #505050",
"J	c #736A48",
"K	c #978440",
"L	c #B59939",
"M	c #C9A835",
"N	c #4F4F4F",
"O	c #4E4E4E",
"P	c #4D4D4D",
"......................",
"++++++++++++++++++++++",
"+++++++@#$%%$#@+++++++",
"&&&&&*=-;;;;;;-=*&&&&&",
">>>>,';)!~{{~!);',>>>>",
"]]]]^;/(______(/;^]]]]",
":::<[)}||||||||})[<:::",
"1112;344444444443;2111",
"5556;788888888887;6555",
"9990;abbbbbbbbbba;0999",
"ccc0;deeeeeeeeeed;0ccc",
"fffg;hiiiiiiiiiih;gfff",
"jjjk;lmmmmmmmmmml;kjjj",
"nnno[pqrrrrrrrrqp[onnn",
"sssst;uvwwwwwwvu;tssss",
"xxxxyz;ABCDDCBA;zyxxxx",
"EEEEEFGH;;;;;;HGFEEEEE",
"IIIIIIIJKLMMLKJIIIIIII",
"NNNNNNNNNNNNNNNNNNNNNN",
"OOOOOOOOOOOOOOOOOOOOOO",
"PPPPPPPPPPPPPPPPPPPPPP",
"PPPPPPPPPPPPPPPPPPPPPP"};
