/* XPM */
static char * maximize_pressed_xpm[] = {
"22 22 82 1",
" 	c None",
".	c #6C6C6C",
"+	c #5F5F5F",
"@	c #5B7E53",
"#	c #579E47",
"$	c #53B83D",
"%	c #51CA36",
"&	c #5E5E5E",
"*	c #5C6C59",
"=	c #569D46",
"-	c #51CC35",
";	c #50D133",
">	c #5D5D5D",
",	c #5B6C58",
"'	c #54A642",
")	c #51C338",
"!	c #5AA24A",
"~	c #6C9164",
"{	c #828C80",
"]	c #5C5C5C",
"^	c #559C45",
"/	c #53B73D",
"(	c #6A9261",
"_	c #8E8E8E",
":	c #5B5B5B",
"<	c #587B50",
"[	c #51CB35",
"}	c #6A9262",
"|	c #8F8F8F",
"1	c #5A5A5A",
"2	c #549C44",
"3	c #5AA34A",
"4	c #919191",
"5	c #595959",
"6	c #52B73B",
"7	c #6E9367",
"8	c #939393",
"9	c #585858",
"0	c #50CA35",
"a	c #889487",
"b	c #959595",
"c	c #575757",
"d	c #8A9588",
"e	c #979797",
"f	c #565656",
"g	c #51B63B",
"h	c #71966A",
"i	c #999999",
"j	c #555555",
"k	c #529A42",
"l	c #5BA34B",
"m	c #9B9B9B",
"n	c #545454",
"o	c #53764B",
"p	c #50CB35",
"q	c #50C237",
"r	c #709867",
"s	c #9D9D9D",
"t	c #535353",
"u	c #519841",
"v	c #52B73C",
"w	c #719968",
"x	c #9F9F9F",
"y	c #525252",
"z	c #52624E",
"A	c #50A23E",
"B	c #50C337",
"C	c #5BA44B",
"D	c #74996D",
"E	c #929D90",
"F	c #515151",
"G	c #51614D",
"H	c #509741",
"I	c #50CB34",
"J	c #505050",
"K	c #507348",
"L	c #509740",
"M	c #50B539",
"N	c #50C935",
"O	c #4F4F4F",
"P	c #4E4E4E",
"Q	c #4D4D4D",
"......................",
"++++++++++++++++++++++",
"+++++++@#$%%$#@+++++++",
"&&&&&*=-;;;;;;-=*&&&&&",
">>>>,';)!~{{~!);',>>>>",
"]]]]^;/(______(/;^]]]]",
":::<[)}||||||||})[<:::",
"1112;344444444443;2111",
"5556;788888888887;6555",
"9990;abbbbbbbbbba;0999",
"ccc0;deeeeeeeeeed;0ccc",
"fffg;hiiiiiiiiiih;gfff",
"jjjk;lmmmmmmmmmml;kjjj",
"nnnopqrssssssssrqponnn",
"ttttu;vwxxxxxxwv;utttt",
"yyyyzA;BCDEEDCB;Azyyyy",
"FFFFFGHI;;;;;;IHGFFFFF",
"JJJJJJJKLMNNMLKJJJJJJJ",
"OOOOOOOOOOOOOOOOOOOOOO",
"PPPPPPPPPPPPPPPPPPPPPP",
"QQQQQQQQQQQQQQQQQQQQQQ",
"QQQQQQQQQQQQQQQQQQQQQQ"};
