/* XPM */
static char * maximize_active_xpm[] = {
"22 22 46 1",
" 	c None",
".	c #6C6C6C",
"+	c #5F5F5F",
"@	c #5E5E5E",
"#	c #5C5C5C",
"$	c #595959",
"%	c #565656",
"&	c #545454",
"*	c #5D5D5D",
"=	c #5B5B5B",
"-	c #6F6F6F",
";	c #868686",
">	c #999999",
",	c #585858",
"'	c #606060",
")	c #828282",
"!	c #A0A0A0",
"~	c #818181",
"{	c #9F9F9F",
"]	c #5A5A5A",
"^	c #555555",
"/	c #9D9D9D",
"(	c #515151",
"_	c #9B9B9B",
":	c #4E4E4E",
"<	c #929292",
"[	c #575757",
"}	c #4D4D4D",
"|	c #909090",
"1	c #979797",
"2	c #7C7C7C",
"3	c #959595",
"4	c #505050",
"5	c #656565",
"6	c #939393",
"7	c #525252",
"8	c #767676",
"9	c #919191",
"0	c #535353",
"a	c #4F4F4F",
"b	c #757575",
"c	c #8F8F8F",
"d	c #626262",
"e	c #878787",
"f	c #4A4A4A",
"g	c #484848",
"......................",
"++++++++++++++++++++++",
"++++++++++++++++++++++",
"@@@@@@@#$%&&%$#@@@@@@@",
"*****#$=-;>>;-=$#*****",
"#####,')!!!!!!)',#####",
"====$$~{{{{{{{{~$$====",
"]]]]^.//////////.^]]]]",
"$$$$(~__________~($$$$",
",,,,:<>>>>>>>>>><:,,,,",
"[[[[}|1111111111|}[[[[",
"%%%%:233333333332:%%%%",
"^^^^45666666666654^^^^",
"&&&&77899999999877&&&&",
"00000a[bccccccb[a00000",
"77777(:4d8ee8d4:(77777",
"(((((((a}fggf}a(((((((",
"4444444444444444444444",
"aaaaaaaaaaaaaaaaaaaaaa",
"::::::::::::::::::::::",
"}}}}}}}}}}}}}}}}}}}}}}",
"}}}}}}}}}}}}}}}}}}}}}}"};
