/* XPM */
static char * maximize_inactive_xpm[] = {
"22 22 43 1",
" 	c None",
".	c #6C6C6C",
"+	c #5F5F5F",
"@	c #5E5E5E",
"#	c #5C5C5C",
"$	c #595959",
"%	c #565656",
"&	c #545454",
"*	c #5D5D5D",
"=	c #696969",
"-	c #7C7C7C",
";	c #8C8C8C",
">	c #585858",
",	c #787878",
"'	c #929292",
")	c #5B5B5B",
"!	c #575757",
"~	c #777777",
"{	c #919191",
"]	c #5A5A5A",
"^	c #555555",
"/	c #666666",
"(	c #8F8F8F",
"_	c #515151",
":	c #8D8D8D",
"<	c #4E4E4E",
"[	c #848484",
"}	c #8B8B8B",
"|	c #4D4D4D",
"1	c #828282",
"2	c #898989",
"3	c #727272",
"4	c #878787",
"5	c #505050",
"6	c #858585",
"7	c #525252",
"8	c #838383",
"9	c #535353",
"0	c #4F4F4F",
"a	c #6B6B6B",
"b	c #7A7A7A",
"c	c #4A4A4A",
"d	c #484848",
"......................",
"++++++++++++++++++++++",
"++++++++++++++++++++++",
"@@@@@@@#$%&&%$#@@@@@@@",
"*****#$$=-;;-=$$#*****",
"#####>*,'''''',*>#####",
"))))$!~{{{{{{{{~!$))))",
"]]]]^/((((((((((/^]]]]",
"$$$$_~::::::::::~_$$$$",
">>>><[}}}}}}}}}}[<>>>>",
"!!!!|122222222221|!!!!",
"%%%%<344444444443<%%%%",
"^^^^5+6666666666+5^^^^",
"&&&&75.88888888.57&&&&",
"999990&a111111a&099999",
"77777_<<#.bb.#<<_77777",
"_______0|cddc|0_______",
"5555555555555555555555",
"0000000000000000000000",
"<<<<<<<<<<<<<<<<<<<<<<",
"||||||||||||||||||||||",
"||||||||||||||||||||||"};
