/* XPM */
static char * menu_inactive_xpm[] = {
"22 22 34 1",
" 	c None",
".	c #6C6C6C",
"+	c #5F5F5F",
"@	c #5E5E5E",
"#	c #5D5D5D",
"$	c #5C5C5C",
"%	c #5B5B5B",
"&	c #5A5A5A",
"*	c #585858",
"=	c #545454",
"-	c #525252",
";	c #595959",
">	c #575757",
",	c #737373",
"'	c #919191",
")	c #727272",
"!	c #9F9F9F",
"~	c #4F4F4F",
"{	c #8B8B8B",
"]	c #9B9B9B",
"^	c #565656",
"/	c #4E4E4E",
"(	c #888888",
"_	c #979797",
":	c #555555",
"<	c #505050",
"[	c #6B6B6B",
"}	c #939393",
"|	c #686868",
"1	c #818181",
"2	c #535353",
"3	c #515151",
"4	c #4B4B4B",
"5	c #4D4D4D",
"......................",
"++++++++++++++++++++++",
"++++++++++++++++++++++",
"@@@@@@@@@@@@@@@@@@@@@@",
"######################",
"$$$$$$$$$$$$$$$$$$$$$$",
"%%%%%%%%%%%%%%%%%%%%%%",
"&&&&&&&&*=--=*&&&&&&&&",
";;;;;;;>*,'',*>;;;;;;;",
"*******-)!!!!)-*******",
">>>>>>>~{]]]]{~>>>>>>>",
"^^^^^^^/(____(/^^^^^^^",
":::::::<[}}}}[<:::::::",
"=======--|11|--=======",
"222222223/44/322222222",
"----------------------",
"3333333333333333333333",
"<<<<<<<<<<<<<<<<<<<<<<",
"~~~~~~~~~~~~~~~~~~~~~~",
"//////////////////////",
"5555555555555555555555",
"5555555555555555555555"};
