/* XPM */
static char * top_left_active_xpm[] = {
"5 22 28 1",
" 	c None",
".	c #6C6C6C",
"+	c #5F5F5F",
"@	c #5E5E5E",
"#	c #5D5D5D",
"$	c #6B6B6B",
"%	c #5C5C5C",
"&	c #5B5B5B",
"*	c #6A6A6A",
"=	c #5A5A5A",
"-	c #686868",
";	c #595959",
">	c #676767",
",	c #585858",
"'	c #656565",
")	c #575757",
"!	c #636363",
"~	c #565656",
"{	c #616161",
"]	c #555555",
"^	c #545454",
"/	c #535353",
"(	c #525252",
"_	c #515151",
":	c #505050",
"<	c #4F4F4F",
"[	c #4E4E4E",
"}	c #4D4D4D",
"    .",
"  ..+",
" .+++",
" .@@@",
".####",
"$%%%%",
"$&&&&",
"*====",
"-;;;;",
">,,,,",
"'))))",
"!~~~~",
"{]]]]",
"+^^^^",
"#////",
"=((((",
",____",
"]::::",
"/<<<<",
":[[[[",
"[}}}}",
"}}}}}"};
